<svg xmlns="http://www.w3.org/2000/svg" width="500" height="500" viewBox="0 0 500 500">
  <g id="::img-banner-dark-web-monitoring" transform="translate(-974.5 -143.856)">
    <g id="Group_3832-inner" data-name="Group 3832-inner" transform="translate(945.919 138.925)">
      <g id="Group_3831" data-name="Group 3831" transform="translate(36.081 38.075)">
        <path id="Path_3538" data-name="Path 3538" d="M304.359,257.723H100.992a5.133,5.133,0,0,1-5.118-5.118h0a5.133,5.133,0,0,1,5.118-5.116H304.359a5.131,5.131,0,0,1,5.116,5.116h0A5.132,5.132,0,0,1,304.359,257.723Z" transform="translate(25.04 175.988)" fill="#3c3c3b"/>
        <g id="Group_3767" data-name="Group 3767" transform="translate(33.383 130.076)">
          <g id="Group_3763" data-name="Group 3763" transform="translate(116.934 225.34)">
            <path id="Path_3539" data-name="Path 3539" d="M221.789,260.693V222.8l-42.446-8.764v-.2l-.487.1-.485-.1v.2L135.922,222.8v37.894s.233,11.759-16.746,15.057H238.535C221.206,272.282,221.789,260.693,221.789,260.693Z" transform="translate(-101.457 -213.832)" fill="#f2f2f2"/>
            <path id="Path_3540" data-name="Path 3540" d="M265.121,252.755c.032-.253.089-2.53.089-2.791,0-3.769-3.549-6.851-7.887-6.851H118.3c-4.338,0-7.887,3.082-7.887,6.851,0,.261.057,2.538.091,2.791Z" transform="translate(-110.414 -183.901)" fill="#d6ebe3"/>
          </g>
          <path id="Path_3584" data-name="Path 3584" d="M0,0H85.875V12.726H0Z" transform="translate(151.394 240.227)" fill="#d6ebe3"/>
          <g id="Group_3766" data-name="Group 3766">
            <g id="Group_3765" data-name="Group 3765">
              <g id="Group_3764" data-name="Group 3764" transform="translate(0.001)">
                <path id="Path_3585" data-name="Path 3585" d="M4.071,0H384.592a4.071,4.071,0,0,1,4.071,4.071V237.29a4.071,4.071,0,0,1-4.071,4.071H4.071A4.071,4.071,0,0,1,0,237.29V4.071A4.071,4.071,0,0,1,4.071,0Z" fill="#dbdbdb"/>
                <path id="Path_3581" data-name="Path 3581" d="M0,0H365.4V230.78H0Z" transform="translate(11.633 10.354)" fill="#76aba7"/>
              </g>
              <path id="Path_3541" data-name="Path 3541" d="M52.589,202.8v29.468a8.9,8.9,0,0,0,8.875,8.873H432.379a8.9,8.9,0,0,0,8.873-8.873V202.8Z" transform="translate(-52.589 0.225)" fill="#fff"/>
            </g>
            <path id="Path_3542" data-name="Path 3542" d="M158.877,216.332a6.767,6.767,0,1,1-6.768-6.766A6.768,6.768,0,0,1,158.877,216.332Z" transform="translate(42.223 7.147)" fill="#d3babd"/>
          </g>
        </g>
        <g id="Group_3769" data-name="Group 3769" transform="translate(361.587 43.201)">
          <path id="Path_3543" data-name="Path 3543" d="M219.1,130.714c-4.052,0-5.422-2.683-3.041-5.965L261.642,61.9c2.38-3.28,6.273-3.28,8.651,0l45.584,62.85c2.38,3.282,1.011,5.965-3.041,5.965Z" transform="translate(-214.89 -59.439)" fill="#fbd424"/>
          <g id="Group_3768" data-name="Group 3768" transform="translate(44.738 13.382)">
            <path id="Path_3544" data-name="Path 3544" d="M238.837,116.461a5.9,5.9,0,0,1-1.824-4.4,5.776,5.776,0,0,1,1.824-4.36,6.378,6.378,0,0,1,4.6-1.745,6.154,6.154,0,0,1,4.479,1.745,5.852,5.852,0,0,1,1.782,4.36,5.983,5.983,0,0,1-1.782,4.4,6.08,6.08,0,0,1-4.479,1.784A6.3,6.3,0,0,1,238.837,116.461Zm-1.268-50.405H249.3l-1.982,37.093H239.47Z" transform="translate(-237.013 -66.056)" fill="#3c3c3b"/>
          </g>
        </g>
        <g id="Group_3782" data-name="Group 3782" transform="translate(0 2.513)">
          <g id="Group_3773" data-name="Group 3773" transform="translate(22.899)">
            <g id="Group_3771" data-name="Group 3771">
              <path id="Path_3545" data-name="Path 3545" d="M149.911,49.922V46.537a7.24,7.24,0,0,0-7.217-7.219H54.624a7.24,7.24,0,0,0-7.219,7.219v3.385Z" transform="translate(-47.405 -39.318)" fill="#dd8e13"/>
              <circle id="Ellipse_86" data-name="Ellipse 86" cx="2.075" cy="2.075" r="2.075" transform="translate(11.468 3.227)" fill="#fc3a5b"/>
              <g id="Group_3770" data-name="Group 3770" transform="translate(5.647 3.227)">
                <circle id="Ellipse_87" data-name="Ellipse 87" cx="2.075" cy="2.075" r="2.075" fill="#0eb316"/>
                <circle id="Ellipse_88" data-name="Ellipse 88" cx="2.075" cy="2.075" r="2.075" transform="translate(11.64)" fill="#ffd44a"/>
              </g>
              <rect id="Rectangle_650" data-name="Rectangle 650" width="102.506" height="66.95" transform="translate(0.006 10.612)" fill="#fbd424"/>
            </g>
            <g id="Group_3772" data-name="Group 3772" transform="translate(9.899 18.22)">
              <rect id="Rectangle_651" data-name="Rectangle 651" width="68.895" height="3.696" fill="#bddef6"/>
              <rect id="Rectangle_652" data-name="Rectangle 652" width="68.895" height="3.696" transform="translate(0 9.608)" fill="#bddef6"/>
              <rect id="Rectangle_653" data-name="Rectangle 653" width="68.895" height="3.696" transform="translate(0 19.217)" fill="#bddef6"/>
              <rect id="Rectangle_654" data-name="Rectangle 654" width="68.895" height="3.695" transform="translate(0 28.825)" fill="#bddef6"/>
              <rect id="Rectangle_655" data-name="Rectangle 655" width="68.895" height="3.695" transform="translate(0 38.433)" fill="#bddef6"/>
              <rect id="Rectangle_656" data-name="Rectangle 656" width="68.895" height="3.695" transform="translate(0 48.041)" fill="#bddef6"/>
            </g>
          </g>
          <g id="Group_3777" data-name="Group 3777" transform="translate(11.484 16.762)">
            <g id="Group_3775" data-name="Group 3775">
              <path id="Path_3546" data-name="Path 3546" d="M144.265,58.211V54.826a7.24,7.24,0,0,0-7.219-7.219H48.977a7.239,7.239,0,0,0-7.217,7.219v3.385Z" transform="translate(-41.76 -47.607)" fill="#dd8e13"/>
              <circle id="Ellipse_89" data-name="Ellipse 89" cx="2.075" cy="2.075" r="2.075" transform="translate(11.466 3.226)" fill="#fc3a5b"/>
              <g id="Group_3774" data-name="Group 3774" transform="translate(5.646 3.226)">
                <circle id="Ellipse_90" data-name="Ellipse 90" cx="2.075" cy="2.075" r="2.075" fill="#0eb316"/>
                <circle id="Ellipse_91" data-name="Ellipse 91" cx="2.075" cy="2.075" r="2.075" transform="translate(11.64)" fill="#ffd44a"/>
              </g>
              <rect id="Rectangle_657" data-name="Rectangle 657" width="102.506" height="66.95" transform="translate(0.005 10.611)" fill="#fbd424"/>
            </g>
            <g id="Group_3776" data-name="Group 3776" transform="translate(9.898 18.219)">
              <rect id="Rectangle_658" data-name="Rectangle 658" width="68.895" height="3.696" fill="#bddef6"/>
              <rect id="Rectangle_659" data-name="Rectangle 659" width="68.895" height="3.696" transform="translate(0 9.608)" fill="#bddef6"/>
              <rect id="Rectangle_660" data-name="Rectangle 660" width="68.895" height="3.696" transform="translate(0 19.217)" fill="#bddef6"/>
              <rect id="Rectangle_661" data-name="Rectangle 661" width="68.895" height="3.696" transform="translate(0 28.825)" fill="#bddef6"/>
              <rect id="Rectangle_662" data-name="Rectangle 662" width="68.895" height="3.696" transform="translate(0 38.433)" fill="#bddef6"/>
              <rect id="Rectangle_663" data-name="Rectangle 663" width="68.895" height="3.696" transform="translate(0 48.041)" fill="#bddef6"/>
            </g>
          </g>
          <g id="Group_3781" data-name="Group 3781" transform="translate(0 33.787)">
            <g id="Group_3779" data-name="Group 3779">
              <path id="Path_3547" data-name="Path 3547" d="M138.589,66.63V63.245a7.242,7.242,0,0,0-7.219-7.219H43.3a7.242,7.242,0,0,0-7.219,7.219V66.63Z" transform="translate(-36.081 -56.026)" fill="#dd8e13"/>
              <circle id="Ellipse_92" data-name="Ellipse 92" cx="2.075" cy="2.075" r="2.075" transform="translate(11.468 3.227)" fill="#fc3a5b"/>
              <g id="Group_3778" data-name="Group 3778" transform="translate(5.648 3.227)">
                <circle id="Ellipse_93" data-name="Ellipse 93" cx="2.075" cy="2.075" r="2.075" fill="#0eb316"/>
                <circle id="Ellipse_94" data-name="Ellipse 94" cx="2.075" cy="2.075" r="2.075" transform="translate(11.64)" fill="#ffd44a"/>
              </g>
              <rect id="Rectangle_664" data-name="Rectangle 664" width="102.506" height="66.95" transform="translate(0.007 10.612)" fill="#fff"/>
            </g>
            <g id="Group_3780" data-name="Group 3780" transform="translate(9.899 18.22)">
              <rect id="Rectangle_665" data-name="Rectangle 665" width="68.895" height="3.696" fill="#ffbe30"/>
              <rect id="Rectangle_666" data-name="Rectangle 666" width="68.895" height="3.696" transform="translate(0 9.608)" fill="#ffbe30"/>
              <rect id="Rectangle_667" data-name="Rectangle 667" width="68.895" height="3.696" transform="translate(0 19.217)" fill="#ffbe30"/>
              <rect id="Rectangle_668" data-name="Rectangle 668" width="68.895" height="3.696" transform="translate(0 28.825)" fill="#ffbe30"/>
              <rect id="Rectangle_669" data-name="Rectangle 669" width="68.895" height="3.696" transform="translate(0 38.433)" fill="#ffbe30"/>
              <rect id="Rectangle_670" data-name="Rectangle 670" width="68.895" height="3.696" transform="translate(0 48.041)" fill="#ffbe30"/>
            </g>
          </g>
        </g>
        <g id="Group_3784" data-name="Group 3784" transform="translate(309.153)">
          <path id="Path_3583" data-name="Path 3583" d="M37.086,0A37.086,37.086,0,1,1,0,37.086,37.086,37.086,0,0,1,37.086,0Z" fill="#d18617"/>
          <path id="Path_3582" data-name="Path 3582" d="M31.357,0A31.357,31.357,0,1,1,0,31.357,31.357,31.357,0,0,1,31.357,0Z" transform="translate(5.729 5.729)" fill="#fff"/>
          <g id="Group_3783" data-name="Group 3783" transform="translate(14.9 16.952)">
            <rect id="Rectangle_671" data-name="Rectangle 671" width="49.167" height="10.854" transform="matrix(0.759, 0.652, -0.652, 0.759, 7.072, 0)" fill="#d18617"/>
            <rect id="Rectangle_672" data-name="Rectangle 672" width="49.167" height="10.854" transform="matrix(-0.759, 0.652, -0.652, -0.759, 44.371, 8.234)" fill="#d18617"/>
          </g>
        </g>
        <path id="Path_3548" data-name="Path 3548" d="M287.664,91.259c-1.968-1.889-4-3.686-6.056-5.476,3.755,3.341-3.84-2.667-5.246-3.49-1.149-.673-4.863-2.17-4.851-2.279a73.939,73.939,0,0,0-7.731-1.846,26.672,26.672,0,0,1-15.27-8.774H152.182a29.647,29.647,0,0,1-8.718,7.365c-6.154,3.355-11.99,7.049-17.814,10.934l-.222.166c-1.2.995-2.386,2-3.541,3.047q-2.909,2.627-5.622,5.462c-.311.324-2.117,2.34-3.46,3.822-.665,1.033-3.848,5.229-4.243,5.834a171.516,171.516,0,0,0-9.684,17.3,27.357,27.357,0,0,1-2,3.353v89.77a29.728,29.728,0,0,1,11.874,11.925c1.7,3.264,3.482,6.469,5.476,9.563.855,1.327,1.753,2.625,2.667,3.911v0a161.407,161.407,0,0,0,12.469,12.4c-.1-.235,4.981,3.735,6.052,4.433q4.356,2.836,8.92,5.335,4.589,2.527,9.341,4.742c.855.4,1.723.777,2.586,1.165.4.158.89.352,1.561.623,21.5,7.539,43.344,12.649,65.556,16.906h5.025q2.472-.625,4.93-1.308c6.5-1.808,12.92-3.893,19.223-6.291,2.378-.906,4.706-1.958,7.106-2.8.906-.427,1.814-.847,2.7-1.308a110.9,110.9,0,0,0,12.918-7.666c-.675.354,4.032-3.375,4.4-3.731.823-.789,6.76-7.842,2.206-1.731,7.486-10.046,17.575-16.139,28.669-16.374V114.862C302.792,107.135,295.581,98.854,287.664,91.259Z" transform="translate(26.071 -6.062)" fill="#fff"/>
        <path id="Path_3549" data-name="Path 3549" d="M303.761,315.571l4.6-4.989,1.67,1.541,7.337,6.764,31.9,29.411-8.119,8.8,22.6,20.841h94.132L384.4,310.194,376.279,319l-37.943-34.978-2.969-2.736,4.6-4.989a8.926,8.926,0,0,0-.512-12.58l-20.8-19.181A122.411,122.411,0,1,0,270.376,296.9l20.8,19.181A8.93,8.93,0,0,0,303.761,315.571Zm-10.2-55.119c-37.433,40.6-112.437,41.959-153.04,4.526S93,155.457,130.436,114.853,244.193,66.636,284.8,104.067,330.994,219.846,293.561,260.452Z" transform="translate(14.999 -6.48)" fill="#e0cef4" style="mix-blend-mode: multiply;isolation: isolate"/>
        <g id="Group_3785" data-name="Group 3785" transform="translate(118.72 62.888)">
          <path id="Path_3550" data-name="Path 3550" d="M206.356,292.308A111.567,111.567,0,1,1,317.923,180.741,111.692,111.692,0,0,1,206.356,292.308Zm0-207.322a95.755,95.755,0,1,0,95.755,95.755A95.864,95.864,0,0,0,206.356,84.986Z" transform="translate(-94.789 -69.174)" fill="#ffbe30"/>
        </g>
        <g id="Group_3788" data-name="Group 3788" transform="translate(108.523 45.318)">
          <g id="Group_3787" data-name="Group 3787">
            <g id="Group_3786" data-name="Group 3786">
              <rect id="Rectangle_673" data-name="Rectangle 673" width="39.847" height="74.189" transform="matrix(0.678, -0.735, 0.735, 0.678, 212.49, 232.548)" fill="#fbd424"/>
              <rect id="Rectangle_674" data-name="Rectangle 674" width="39.847" height="54.538" transform="translate(191.217 212.936) rotate(-47.327)" fill="#5e8cea"/>
              <path id="Path_3551" data-name="Path 3551" d="M295.074,92.84a122.411,122.411,0,1,0-21,195.563l20.8,19.181a8.928,8.928,0,0,0,12.58-.512L343.661,267.8a8.928,8.928,0,0,0-.51-12.58l-20.807-19.181A122.618,122.618,0,0,0,295.074,92.84Zm-9.332,157.888A100.156,100.156,0,1,1,279.988,109.2,100.271,100.271,0,0,1,285.741,250.727Z" transform="translate(-89.747 -60.485)" fill="#dd8e13"/>
            </g>
            <path id="Path_3552" data-name="Path 3552" d="M238.448,196.818h0a4.28,4.28,0,0,1-6.028.245l-16.364-15.086a4.28,4.28,0,0,1-.245-6.028h0a4.278,4.278,0,0,1,6.028-.245L238.2,190.789A4.278,4.278,0,0,1,238.448,196.818Z" transform="translate(37.968 56.141)" fill="#fff"/>
          </g>
          <path id="Path_3553" data-name="Path 3553" d="M215.9,226.677l75.275,69.394a8.928,8.928,0,0,0,12.58-.512l31.176-33.817a8.928,8.928,0,0,0-.512-12.58l-75.273-69.4Z" transform="translate(39.203 61.444)" fill="#dd8e13"/>
          <path id="Path_3554" data-name="Path 3554" d="M236.118,199.189l51.75,47.71a6.956,6.956,0,0,0,9.43-10.228l-51.752-47.71Z" transform="translate(59.874 70.843)" fill="#fff" opacity="0.19"/>
        </g>
        <g id="Group_3802" data-name="Group 3802" transform="translate(171.905 86.419)">
          <g id="Group_3791" data-name="Group 3791" transform="translate(0 30.696)">
            <g id="Group_3789" data-name="Group 3789" transform="translate(0 25.933)">
              <path id="Path_3555" data-name="Path 3555" d="M144.277,137.271a3.706,3.706,0,0,1-1.484.121c-16.855-2.034-21.569-17.1-21.7-24.788a3.724,3.724,0,0,1,7.446-.148h0c.016.643.572,15.781,15.148,17.541a3.724,3.724,0,0,1,.592,7.274Z" transform="translate(-121.09 -108.814)" fill="#140005"/>
            </g>
            <g id="Group_3790" data-name="Group 3790" transform="translate(85.05)">
              <path id="Path_3556" data-name="Path 3556" d="M167.912,131.029a3.675,3.675,0,0,0,1.316-.694c13.144-10.746,9.053-26,5.049-32.555a3.724,3.724,0,0,0-6.366,3.864h0c.33.55,7.97,13.632-3.4,22.924a3.725,3.725,0,0,0,3.4,6.461Z" transform="translate(-163.148 -95.99)" fill="#140005"/>
            </g>
          </g>
          <g id="Group_3794" data-name="Group 3794" transform="translate(16.926 98.089)">
            <g id="Group_3792" data-name="Group 3792" transform="translate(0 22.792)">
              <path id="Path_3557" data-name="Path 3557" d="M139.737,140.734a3.7,3.7,0,0,0-1.319.694c-13.144,10.746-9.051,26-5.047,32.555a3.723,3.723,0,0,0,6.366-3.862h0c-.332-.552-7.97-13.632,3.4-22.926a3.725,3.725,0,0,0-3.4-6.461Z" transform="translate(-129.46 -140.587)" fill="#140005"/>
            </g>
            <g id="Group_3793" data-name="Group 3793" transform="translate(86.067)">
              <path id="Path_3558" data-name="Path 3558" d="M174.707,129.463a3.7,3.7,0,0,1,1.482-.119c16.855,2.032,21.569,17.1,21.7,24.786a3.724,3.724,0,0,1-7.446.148h0c-.016-.643-.57-15.781-15.146-17.539a3.725,3.725,0,0,1-.592-7.276Z" transform="translate(-172.02 -129.316)" fill="#140005"/>
            </g>
          </g>
          <g id="Group_3801" data-name="Group 3801" transform="translate(5.9)">
            <g id="Group_3797" data-name="Group 3797" transform="translate(0 19.182)">
              <path id="Rectangle_675" data-name="Rectangle 675" d="M12.2,0H42.291a12.2,12.2,0,0,1,12.2,12.2V44a12.2,12.2,0,0,1-12.2,12.2H12.2A12.2,12.2,0,0,1,0,44V12.2A12.2,12.2,0,0,1,12.2,0Z" transform="translate(10.312 15.199) rotate(-16.196)" fill="#140005"/>
              <path id="Rectangle_676" data-name="Rectangle 676" d="M9.16,0H39.847a9.159,9.159,0,0,1,9.159,9.159V33.287a9.159,9.159,0,0,1-9.159,9.159H9.159A9.159,9.159,0,0,1,0,33.287V9.16A9.16,9.16,0,0,1,9.16,0Z" transform="translate(16.77 27.599) rotate(-16.195)" fill="#ffbe30"/>
              <g id="Group_3796" data-name="Group 3796" transform="translate(0 16.895)">
                <ellipse id="Ellipse_97" data-name="Ellipse 97" cx="44.554" cy="55.864" rx="44.554" ry="55.864" transform="matrix(0.96, -0.279, 0.279, 0.96, 0, 24.853)" fill="#fbd424"/>
                <path id="Path_3559" data-name="Path 3559" d="M145.169,105.518,176.331,212.81c23.625-6.865,35.8-36.446,27.2-66.069S168.8,98.661,145.169,105.518Z" transform="translate(-102.376 -93.093)" fill="#d18617"/>
                <g id="Group_3795" data-name="Group 3795" transform="translate(25.609 83.66)">
                  <path id="Path_3560" data-name="Path 3560" d="M173.307,170.2a2.089,2.089,0,0,1-1.031.032c-24.762-5.652-34.978-26.4-35.4-27.284a2.056,2.056,0,0,1,.961-2.742,2.093,2.093,0,0,1,2.744.959c.1.2,9.838,19.858,32.614,25.053a2.057,2.057,0,0,1,.113,3.982Z" transform="translate(-136.672 -140.021)" fill="#fff"/>
                </g>
              </g>
            </g>
            <g id="Group_3800" data-name="Group 3800" transform="translate(4.623)">
              <g id="Group_3798" data-name="Group 3798" transform="translate(0 13.602)">
                <path id="Path_3561" data-name="Path 3561" d="M149.481,115.994a3.712,3.712,0,0,1-1.484.119c-16.855-2.032-21.569-17.1-21.7-24.786a3.724,3.724,0,0,1,7.446-.148h0c.016.643.572,15.779,15.146,17.539a3.726,3.726,0,0,1,.595,7.276Z" transform="translate(-126.294 -87.537)" fill="#140005"/>
              </g>
              <g id="Group_3799" data-name="Group 3799" transform="translate(42.592)">
                <path id="Path_3562" data-name="Path 3562" d="M152.12,115.849a3.676,3.676,0,0,0,1.316-.694c13.144-10.744,9.053-26,5.049-32.555a3.724,3.724,0,0,0-6.366,3.864h0c.33.552,7.969,13.632-3.4,22.924a3.724,3.724,0,0,0,3.4,6.461Z" transform="translate(-147.356 -80.81)" fill="#140005"/>
              </g>
            </g>
          </g>
        </g>
        <g id="Group_3816" data-name="Group 3816" transform="translate(63.575 248.762)">
          <g id="Group_3805" data-name="Group 3805" transform="translate(19.539 7.142)">
            <g id="Group_3803" data-name="Group 3803">
              <path id="Path_3563" data-name="Path 3563" d="M79.03,177.8a1.407,1.407,0,0,1-.392-.417c-3.424-5.537-.034-10.556,2.237-12.435a1.428,1.428,0,0,1,1.826,2.2h0c-.188.16-4.592,3.947-1.632,8.736A1.429,1.429,0,0,1,79.03,177.8Z" transform="translate(-77.182 -164.623)" fill="#140005"/>
            </g>
            <g id="Group_3804" data-name="Group 3804" transform="translate(22.984 20.552)">
              <path id="Path_3564" data-name="Path 3564" d="M89.153,182.752a1.389,1.389,0,0,0,.524.229c6.366,1.369,9.957-3.507,10.964-6.275a1.428,1.428,0,0,0-2.681-.985h0c-.085.231-2.178,5.65-7.682,4.469a1.428,1.428,0,0,0-1.124,2.562Z" transform="translate(-88.548 -174.786)" fill="#140005"/>
            </g>
          </g>
          <g id="Group_3808" data-name="Group 3808" transform="translate(0 29.659)">
            <g id="Group_3806" data-name="Group 3806">
              <path id="Path_3565" data-name="Path 3565" d="M79.1,176.224a1.421,1.421,0,0,0-.524-.229c-6.366-1.369-9.957,3.506-10.964,6.277a1.428,1.428,0,0,0,2.681.983h0c.085-.231,2.178-5.65,7.682-4.467a1.429,1.429,0,0,0,1.124-2.564Z" transform="translate(-67.52 -175.758)" fill="#140005"/>
            </g>
            <g id="Group_3807" data-name="Group 3807" transform="translate(32.999 18.271)">
              <path id="Path_3566" data-name="Path 3566" d="M88.022,185.054a1.408,1.408,0,0,1,.392.417c3.424,5.537.034,10.556-2.237,12.434a1.428,1.428,0,0,1-1.826-2.2h0c.188-.16,4.592-3.947,1.632-8.736a1.429,1.429,0,0,1,2.038-1.919Z" transform="translate(-83.838 -184.793)" fill="#140005"/>
            </g>
          </g>
          <g id="Group_3815" data-name="Group 3815" transform="translate(7.462)">
            <g id="Group_3811" data-name="Group 3811" transform="translate(0 6.099)">
              <rect id="Rectangle_677" data-name="Rectangle 677" width="20.898" height="21.556" rx="4.68" transform="matrix(0.817, 0.576, -0.576, 0.817, 27.454, 0)" fill="#140005"/>
              <rect id="Rectangle_678" data-name="Rectangle 678" width="18.794" height="16.279" rx="3.513" transform="translate(25.282 4.902) rotate(35.203)" fill="#4f0413"/>
              <g id="Group_3810" data-name="Group 3810" transform="translate(0 10.528)">
                <path id="Path_3567" data-name="Path 3567" d="M103.813,199.254c-6.821,9.668-18.6,13.1-26.313,7.656s-8.433-17.688-1.612-27.356,18.6-13.1,26.313-7.656S110.633,189.584,103.813,199.254Z" transform="translate(-71.209 -169.313)" fill="#ffd44a"/>
                <path id="Path_3568" data-name="Path 3568" d="M99.022,170.592l-24.7,35.01c7.711,5.438,19.49,2.01,26.311-7.656S106.731,176.032,99.022,170.592Z" transform="translate(-68.029 -168.006)" fill="#ffb42e"/>
                <g id="Group_3809" data-name="Group 3809" transform="translate(2.997 14.795)">
                  <path id="Path_3569" data-name="Path 3569" d="M74.947,194.515a.779.779,0,0,1-.257-.3,20.893,20.893,0,0,1-.293-17.138.788.788,0,0,1,1.052-.368.8.8,0,0,1,.37,1.052,19.664,19.664,0,0,0,.293,15.769.788.788,0,0,1-1.165.987Z" transform="translate(-72.692 -176.629)" fill="#fff"/>
                </g>
              </g>
            </g>
            <g id="Group_3814" data-name="Group 3814" transform="translate(27.491)">
              <g id="Group_3812" data-name="Group 3812">
                <path id="Path_3570" data-name="Path 3570" d="M86.652,174.272a1.433,1.433,0,0,1-.392-.417c-3.424-5.539-.034-10.556,2.237-12.435a1.428,1.428,0,0,1,1.826,2.2h0c-.188.158-4.592,3.947-1.632,8.736a1.429,1.429,0,0,1-2.038,1.919Z" transform="translate(-84.804 -161.091)" fill="#140005"/>
              </g>
              <g id="Group_3813" data-name="Group 3813" transform="translate(9.13 10.779)">
                <path id="Path_3571" data-name="Path 3571" d="M89.924,174.387a1.389,1.389,0,0,0,.524.229c6.366,1.369,9.957-3.507,10.964-6.275a1.428,1.428,0,0,0-2.681-.985h0c-.085.23-2.178,5.65-7.682,4.469a1.428,1.428,0,0,0-1.124,2.562Z" transform="translate(-89.319 -166.421)" fill="#140005"/>
              </g>
            </g>
          </g>
        </g>
        <g id="Group_3830" data-name="Group 3830" transform="translate(364.415 184.279)">
          <g id="Group_3819" data-name="Group 3819" transform="translate(0 8.681)">
            <g id="Group_3817" data-name="Group 3817" transform="translate(0 9.045)">
              <path id="Path_3572" data-name="Path 3572" d="M223.564,146.165a1.1,1.1,0,0,1-.441.059c-5.053-.358-6.681-4.781-6.833-7.07a1.111,1.111,0,0,1,2.216-.154h0c.014.192.4,4.7,4.774,5a1.112,1.112,0,0,1,.283,2.16Z" transform="translate(-216.288 -137.969)" fill="#140005"/>
            </g>
            <g id="Group_3818" data-name="Group 3818" transform="translate(25.379)">
              <path id="Path_3573" data-name="Path 3573" d="M230.312,143.989a1.12,1.12,0,0,0,.382-.227c3.761-3.4,2.315-7.883,1.025-9.779a1.111,1.111,0,0,0-1.84,1.246h0c.107.16,2.576,3.947-.673,6.884a1.112,1.112,0,0,0,1.106,1.877Z" transform="translate(-228.838 -133.496)" fill="#140005"/>
            </g>
          </g>
          <g id="Group_3822" data-name="Group 3822" transform="translate(6.21 28.569)">
            <g id="Group_3820" data-name="Group 3820" transform="translate(0 7.949)">
              <path id="Path_3574" data-name="Path 3574" d="M222.152,147.323a1.084,1.084,0,0,0-.384.226c-3.759,3.4-2.315,7.881-1.025,9.777a1.112,1.112,0,0,0,1.842-1.246h0c-.107-.158-2.578-3.945.673-6.884a1.11,1.11,0,0,0-1.106-1.875Z" transform="translate(-219.359 -147.262)" fill="#140005"/>
            </g>
            <g id="Group_3821" data-name="Group 3821" transform="translate(25.102)">
              <path id="Path_3575" data-name="Path 3575" d="M232.521,143.392a1.105,1.105,0,0,1,.441-.059c5.056.358,6.681,4.78,6.835,7.07a1.112,1.112,0,0,1-2.218.154h0c-.014-.192-.4-4.7-4.772-5a1.112,1.112,0,0,1-.285-2.16Z" transform="translate(-231.772 -143.331)" fill="#140005"/>
            </g>
          </g>
          <g id="Group_3829" data-name="Group 3829" transform="translate(2.503 0)">
            <g id="Group_3825" data-name="Group 3825" transform="translate(1.948 5.609)">
              <rect id="Rectangle_679" data-name="Rectangle 679" width="16.264" height="16.776" rx="3.642" transform="translate(0 5.301) rotate(-19.022)" fill="#140005"/>
              <rect id="Rectangle_680" data-name="Rectangle 680" width="14.627" height="12.669" rx="2.734" transform="translate(2.107 8.903) rotate(-19.024)" fill="#4f0413"/>
              <g id="Group_3824" data-name="Group 3824" transform="translate(1.623 8.444)">
                <path id="Path_3576" data-name="Path 3576" d="M245.563,148.171c3,8.706-.194,17.7-7.138,20.1s-15-2.724-18.006-11.429.194-17.7,7.138-20.1S242.562,139.466,245.563,148.171Z" transform="translate(-219.291 -136.153)" fill="#ffd44a"/>
                <path id="Path_3577" data-name="Path 3577" d="M223.38,136.742l10.869,31.524c6.94-2.394,10.135-11.391,7.134-20.095S230.322,134.349,223.38,136.742Z" transform="translate(-215.112 -136.152)" fill="#ffb42e"/>
                <g id="Group_3823" data-name="Group 3823" transform="translate(4.223 22.046)">
                  <path id="Path_3578" data-name="Path 3578" d="M232.717,155.543a.608.608,0,0,1-.307.024,16.265,16.265,0,0,1-10.956-7.612.615.615,0,0,1,.247-.831.624.624,0,0,1,.833.245,15.286,15.286,0,0,0,10.091,6.989.614.614,0,0,1,.093,1.185Z" transform="translate(-221.38 -147.054)" fill="#fff"/>
                </g>
              </g>
            </g>
            <g id="Group_3828" data-name="Group 3828">
              <g id="Group_3826" data-name="Group 3826" transform="translate(0 4.743)">
                <path id="Path_3579" data-name="Path 3579" d="M224.8,139.747a1.137,1.137,0,0,1-.441.059c-5.053-.36-6.681-4.783-6.833-7.07a1.111,1.111,0,0,1,2.216-.154h0c.014.19.4,4.7,4.774,5a1.112,1.112,0,0,1,.283,2.16Z" transform="translate(-217.526 -131.549)" fill="#140005"/>
              </g>
              <g id="Group_3827" data-name="Group 3827" transform="translate(12.904)">
                <path id="Path_3580" data-name="Path 3580" d="M225.381,139.7a1.058,1.058,0,0,0,.382-.226c3.761-3.4,2.315-7.883,1.025-9.779a1.111,1.111,0,0,0-1.84,1.246h0c.107.16,2.576,3.947-.675,6.886a1.111,1.111,0,0,0,1.108,1.875Z" transform="translate(-223.907 -129.203)" fill="#140005"/>
              </g>
            </g>
          </g>
        </g>
      </g>
    </g>
    <rect id="Group_3832-area" data-name="Group 3832-area" width="500" height="500" transform="translate(974.5 143.856)" fill="none"/>
  </g>
</svg>
